<svg id="Ebene_1" data-name="Ebene 1" xmlns="http://www.w3.org/2000/svg" viewBox="0 0 899.38 899.52"><defs><style>.cls-1{fill:#e30613;}.cls-2{fill:#1d1d1b;}</style></defs><title>LogoBCW_Icon_Red-Black</title><path class="cls-1" d="M496,945.82C246.81,945.07,46.3,744.63,46.37,495.89A448.94,448.94,0,0,1,496.16,46.3c249.39.09,449.69,201.28,449.59,449.78C945.65,745.48,744.46,945.25,496,945.82Zm.26-881C258.19,65.34,65.14,256.71,65,495.92,64.91,733.44,256.28,926.73,495.71,927c237.54.3,431.15-191.07,431.38-430.78C927.32,258.33,735.56,65.64,496.22,64.8Z" transform="translate(-46.37 -46.3)"/><path class="cls-2" d="M496.22,64.8c239.34.84,431.1,193.53,430.87,431.44C926.86,736,733.25,927.32,495.71,927,256.28,926.73,64.91,733.44,65,495.92,65.14,256.71,258.19,65.34,496.22,64.8Zm1.08,778.05c191.82.09,348-155.66,348.22-347.34.26-192.59-155.14-348.77-347.24-349-192.87-.22-349,155.38-349.08,348C149.08,686.54,305.19,842.76,497.3,842.85ZM176.37,715.63l-.5-.58L191,697.15l-17.24-23-33,43.64,17.65,23.41L179,733.29l.42.61-13.27,17.66L183.79,775l51.1-19.44-17.26-23L196.25,742l-.38-.71,14.82-17.94-12.75-17.21ZM876,322.83l-49.36,18.11a21.52,21.52,0,0,0,.53,2.27c5.11,14.18,10.16,28.39,15.41,42.53a39.09,39.09,0,0,0,4.67,8.89c2.56,3.63,6.25,5.37,10.79,4a42.8,42.8,0,0,0,7.28-2.81,10.15,10.15,0,0,0,5.75-9.39c0-1.16,0-2.33,0-3.92a13.41,13.41,0,0,1,1.26,1.1c5.11,6.28,9,7.42,15.12,4.46s8.38-7.15,6-14.6C888,356.63,882,340,876,322.83ZM446.89,82c.72,17.48,1.43,34.63,2.14,51.93a15.22,15.22,0,0,0,2,.22c13.47-.47,26.94-.89,40.41-1.46a99.08,99.08,0,0,0,12.27-1.27c6-1,8.91-4.19,9.71-9.77,1.32-9.27-1.46-13.7-11.22-17.59,1.19-.5,2.22-.91,3.23-1.35,5.92-2.63,7.77-6,7-12.88-.59-5.09-3.92-8.47-9.71-9.28A64.08,64.08,0,0,0,491.93,80c-13.6.43-27.19,1-40.78,1.59C449.82,81.62,448.49,81.84,446.89,82ZM317.63,814.33c-3.66,6.2-7,11.92-10.39,17.63-.36-7.08.1-13.79.28-20.52,0-1.34-.61-3.34-1.61-4-7.32-4.49-14.81-8.71-22.58-13.21l-26.57,45.32,22.4,13c4.13-7,8-13.6,11.88-20.18a4.28,4.28,0,0,1,.64,2.7c-.36,7.1-.81,14.21-1.06,21.31,0,1.17.43,2.93,1.26,3.44,7.08,4.35,14.3,8.48,21.72,12.81l26.56-45.32ZM143.4,401.63c.57-1.28,1.08-2.25,1.45-3.27,4.79-13.25,9.64-26.47,14.31-39.76a60.65,60.65,0,0,0,2.71-10.85,9.13,9.13,0,0,0-4.6-9.9c-10-5.67-15.62-4.7-21,2.72-.1.14-.41.13.32-.07-1.16-3.61-1.47-7.79-3.6-10.57a11.09,11.09,0,0,0-18.38,1.23c-3.23,5.69-5.46,12-7.8,18.14-4.29,11.27-8.33,22.64-12.59,34.31ZM832.29,704.74c2.83-6.08,3.86-6.4,9.17-3.19,4.33,2.61,8.65,5.24,13.16,8l15-25.23c-5.17-3-10.05-5.95-15.12-8.59-4.16-2.16-8.22-1.45-11.89,1.48-.82.66-1.68,1.28-2.88,2.2.25-1.33.38-2.16.56-3,1.34-6.21-.24-9.88-5.54-12.83-5.45-3-9.8-2.53-14.09,2.24a69.9,69.9,0,0,0-7.23,10c-7.59,12.3-15,24.7-22.65,37.26l44.89,27.38L850.52,716ZM513.94,914.23l28.39-3.43c-.83-7.52-1.6-14.41-2.36-21.21,6.23-1.77,7.3-1.09,8,4.65.68,5.15,1.36,10.29,2.06,15.63l28.6-3.26c-.53-4.37-1.16-8.41-1.49-12.48-.59-7.42-3.74-12.56-11.59-13.86-.13,0-.2-.39-.36-.72l1.3-.66c6.23-3.17,8.36-6.91,7.25-12.75-1.21-6.34-4.33-9.2-11.28-9.91a35.71,35.71,0,0,0-7.45.15c-7.69.82-15.37,1.76-23,2.69-8,1-16,2-24.4,3C509.74,879.57,511.81,896.71,513.94,914.23Zm176.36-47.4,24.16-15.24L702.32,832.1l6.44-3.77L721,847.48l24.14-15.2-27.91-44.4-24.16,15,9.45,15.26L696,822c-3.3-5.2-6.35-10-9.49-15L662.4,822.26Zm64.3-112-20.67,19.5c9.72,10.23,19.1,20.45,28.89,30.26,4.43,4.44,9.3,4.78,13.77.52,10.94-10.4,21.36-21.35,32-32.11a8.2,8.2,0,0,0,1.2-1.89c2.55-4.53,2.51-8.29-1.07-12-9.75-10.18-19.75-20.14-29-29.47l-20.89,20.21c.49.51,1.06,1.16,1.68,1.77q11.85,11.75,23.72,23.48c1.88,1.85,3.18,3.71.85,6s-4.27,1.12-6.11-.75c-.7-.71-1.45-1.38-2.14-2.1ZM866.67,304.52c-5.12-8.28-10.09-16.29-15.17-24.51-10.43,6.53-20.55,12.88-30.68,19.21-2.18,1.37-4.44,2.18-6.2-.5-1.87-2.83-.25-4.6,2.14-6.08q12.25-7.58,24.48-15.19c2-1.24,3.93-2.52,6.13-3.93l-15-24.26c-11,6.85-21.84,13.54-32.63,20.27-8.79,5.48-10,10.18-4.9,19.3,3,5.32,6.27,10.49,9.55,15.65,4,6.31,7.91,12.73,12.32,18.75,4.19,5.73,9.3,6.4,15.42,2.72,4.06-2.44,8.06-5,12.09-7.48ZM231.56,173.57l30.21,42.9,22.93-16.15L272,182l.53-.61,20.85,13,23.58-16.52c-7.79-5-15.09-9.76-22.53-14.32a7.63,7.63,0,0,1-4-5.82c-1.21-7.36-2.75-14.66-4.26-22.54-7.84,5.54-15.28,10.73-22.6,16.09-.66.49-.85,2.17-.67,3.19,1.14,6.31,2.44,12.59,3.69,18.88l-.65.3L254.5,157.41Zm-47.7,136.32c-1.65-1.41-3.07-2.6-4.47-3.81s-2.76-2.41-4.06-3.56c3.88-7.44,3.88-7.44,11-4.3.68.3,1.37.88,2,.86.93,0,2.3-.22,2.7-.84,4.89-7.63,9.62-15.35,14.38-23-.45-.36-.62-.59-.84-.66-16.1-5.28-32.22-10.5-48.28-15.87-2.25-.75-2.86.5-3.74,1.91-6.83,11-13.62,22.08-20.57,33-1.35,2.13-1,3.36.64,5.06,11.15,11.26,22.2,22.64,33.29,34,.73.75,1.58,1.39,2.54,2.23ZM520.09,131.82l29.19,4.57c1.25-3.83,2.4-7.33,3.52-10.72,8.35.79,8.35.79,8.25,8.66a6.23,6.23,0,0,1,0,.75c-.37,2.48.65,3.59,3.2,3.9,4.2.51,8.36,1.38,12.55,2.05s8.48,1.27,12.86,1.92a17.05,17.05,0,0,0,.17-2.06c-1.28-16.56-2.54-33.12-4-49.66-.07-.86-1.57-2.11-2.56-2.28q-19.72-3.45-39.52-6.51a4,4,0,0,0-3.24,1.81c-2.26,4.72-4.19,9.6-6.25,14.42C529.64,109.54,525,120.4,520.09,131.82ZM195.78,257.53c2.64,2.41,4.81,4.47,7.08,6.43,3,2.58,6.29,2.79,9.7.87a20.39,20.39,0,0,0,4.7-3c9.93-10.19,20.1-20.19,29.48-30.87,5.59-6.37,4.64-11.07-1.36-17-1-1-2-1.94-3-2.85-4.83-4.26-7.87-4.67-13.57-1.52-7.1,3.92-14.11,8-21.18,12a13,13,0,0,1-3.35,1.59,3.18,3.18,0,0,1-2.64-.52,3.07,3.07,0,0,1-.29-2.73c.91-2,2.24-3.63,5-2.65a3,3,0,0,0,2.52-.16c6.34-6.5,12.58-13.09,19.24-20.07a23.88,23.88,0,0,1-2.45-1.83c-5.65-5.55-8.43-5.87-15.06-1.38a36.48,36.48,0,0,0-5.72,4.8c-7.72,8-15.47,16-22.92,24.24a31.51,31.51,0,0,0-5.55,9.19c-.74,1.83-.79,4.94.3,6.36,6.56,8.55,10,11.4,19.91,5.68,6.38-3.68,12.74-7.4,19.11-11.08a18.37,18.37,0,0,1,3-1.52c2.9-1,4.76.74,5.63,3a5.28,5.28,0,0,1-1.1,4.46c-1.72,1.9-3.61.66-5.19-.78-.64-.58-1.31-1.13-2.21-1.91Zm563.05-44.36L736,195.51c-1.63,2-2.62,4-4.23,4.94-1.26.77-3.81,1-4.79.21s-1.58-3.71-.89-4.66c4.51-6.28,9.31-12.36,14.3-18.26.71-.83,3.63-1,4.36-.32,1,1,1.24,3.13,1.07,4.7-.12,1.19-1.38,2.25-2.27,3.58l22.63,17.58c1.08-1.29,2-2.31,2.82-3.36,6.45-8,6.59-12.67-1.16-19.24-10.45-8.87-21.34-17.27-32.46-25.29-7.17-5.17-11.85-4-17.35,3S707,172.49,701.48,179.61c-4.77,6.19-4.56,10.54.77,16.26a42.49,42.49,0,0,0,4.71,4.28c8.13,6.42,16.24,12.86,24.49,19.13a47.14,47.14,0,0,0,8.58,5.24c4.63,2.15,8.11,1.37,11.47-2.33C754,219.44,756.21,216.42,758.83,213.17ZM357.75,121.82l-23.46,10.39-2.24-5.44,25.71-11.65c-1.66-3.7-3.17-7-4.77-10.59l-52.05,23c7.18,16.22,14.19,32,21.31,48.11l52.07-23.14-4.8-10.59-25.86,11.34-4.51-10.08,23.36-10.58C360.85,128.82,359.35,125.42,357.75,121.82ZM482.09,913.89c.42-4.08.78-7.61,1.17-11.47l-28.1-3.12c.43-3.92.81-7.43,1.19-11l25.46,2.5c.4-4,.77-7.6,1.16-11.42-7.24-.79-14.05-1.56-20.87-2.26-5.09-.52-5.22-.68-3.63-6.37l27.66,2.57c.35-3.27.51-5.9.93-8.48s-.74-3.36-3.24-3.58c-12.06-1.08-24.1-2.36-36.15-3.54-5.54-.55-11.09-1-16.95-1.55-1.76,17.54-3.49,34.72-5.24,52.16Zm-99.3-15.76,12.35-38.83,14.13,4.22c1.24-4,2.33-7.48,3.51-11.25l-55.27-17.52c-1.25,3.93-2.35,7.42-3.52,11.1l14,4.67-12.25,38.89Zm266.37-56.94c-1.4-3.89-2.66-7.35-4-11.12l-54.72,19.4c1.39,3.87,2.65,7.35,4,11.12l13.9-4.94,13.75,38.56,26.79-9.5-13.6-38.35ZM425.67,139.11c-3.16-13.46-6.19-26.38-9.27-39.49l14.28-3.69c-.87-3.71-1.69-7.2-2.65-11.27L371.51,98.08c1,4,1.81,7.45,2.72,11.23l14.31-3.11c3.17,13.35,6.27,26.4,9.4,39.6Zm187.7-42.84c-5.9,16.7-11.66,33-17.53,49.62l43.82,15.46c1.39-4,2.6-7.49,3.88-11.15l-16.66-6.09,13.44-38.37ZM671.08,118c-8.27,15.55-16.37,30.82-24.68,46.45l41,21.62c2-3.64,3.71-6.85,5.53-10.23l-15.63-8.32,19-36.14Zm80.61,118.89,31.06,34.51,8.64-8-11.8-13.26L809.88,223,790.8,201.84Zm-502.8,527.6-34.13,40.06,21.77,18.51c11.51-13.52,22.73-26.68,34.09-40Z" transform="translate(-46.37 -46.3)"/><path class="cls-1" d="M497.3,842.85c-192.11-.09-348.22-156.31-348.1-348.34.12-192.6,156.21-348.2,349.08-348,192.1.21,347.5,156.39,347.24,349C845.26,687.19,689.12,842.94,497.3,842.85ZM175.91,566c.16.84.24,1.44.38,2C192.31,636.52,226,694.83,279,741c77.27,67.28,167.33,93.57,268.77,79,58.79-8.43,111.06-32.48,157.36-69.64,11.42-9.17,18.89-20.65,22.07-35,5.43-24.62,5.71-49.53,4.68-74.54-.25-6.17-.72-12.33-1.08-18.28,14.35-3.47,28.15-1.35,42.69-.23-2.57-48-19.27-91.67-37.24-135.24,19.7-1.13,38.47-.05,57.19,8.53-1.46-10-2.44-19.28-4.21-28.41-3.36-17.41-9.34-33.9-19-48.87a97.71,97.71,0,0,0-48.13-38.86c-2.76-1.06-4-2.31-4.23-5.49a46.12,46.12,0,0,0-3-12.3c-6.58-17.31-18.28-30.83-32.51-42.24-25.86-20.76-55.94-32.86-87.83-40-26.8-6-54.08-5.29-81.16-.48-4.95.88-9.85,2.06-15.62,3.28a16.14,16.14,0,0,0,1.66.88c2.79.65,5.61,1.24,8.39,1.94,23,5.86,43.32,17.06,61.84,31.66,13.79,10.88,26.52,22.91,36.44,37.49a176.66,176.66,0,0,0,31.6,35.35c6.14,5.24,12.21,10.56,19,16.44-1.46,0-2,.06-2.59,0-11.53-1.38-23.12-2.37-34.56-4.25-24.63-4-48-12.35-71.12-21.56-7.31-2.92-10-7.8-7.71-13.36s7.59-6.66,15-4c13.58,5,27.27,9.6,40.93,14.35a16.46,16.46,0,0,0,2.78.43,169,169,0,0,0-36-41.91c-15.24-12.75-31.88-23-50.75-29.73-21.77-7.74-44.29-7.58-66.67-6.1A134.4,134.4,0,0,0,369.07,330a6.25,6.25,0,0,1-4,1.25c-15.69-1.2-31.36-2.6-47-3.79-4.06-.3-8.15,0-13,0,.65,2,.68,4.36,1.86,5.39,6.81,6,7.46,11.59,1.26,18.19-2.26,2.41-2.05,4.73-1.48,7.64,11.67-.58,23.14-1.05,34.59-1.75,13.35-.83,26.67-1.56,39.92,1.2,13,2.72,25.14,7.44,35.4,16.1,16,13.48,21.64,31.22,20.61,51.52-.84,16.81-7.51,30.65-21.43,40.53-9.54,6.77-20.35,10.57-31.8,12.42-7.55,1.21-15.19,1.84-22.83,2.74,6.33,4.47,26.17,12.21,33.95,13.17,22.36,2.76,44.61,2.51,66.57-3.09,15.39-3.92,29.71-10.26,40.09-22.67,6.44-7.71,11.43-16.63,17.12-25,.63-.92,1.69-2.4,2.37-2.31,5.63.76,11.23,1.83,16.74,2.78,0,7.81-4.19,19.45-10.39,28.58-16.8,24.81-39.85,42-66.73,54.53-19,8.82-39.14,10.42-59.67,9.83-3.3-.1-6.6,0-10.36,0,10.55,21.44,21,42.66,31.45,63.88a9,9,0,0,1-3.43-2c-12.86-10.69-25.19-22.15-38.73-31.9-19.83-14.27-41.88-24.7-64.6-33.62-19.59-7.69-39.69-13.55-60.72-15.46-6.58-.6-13.26-.1-21-.1,13.37,9.18,22,21.26,31.53,33.71C234.38,552.54,204.69,556.13,175.91,566ZM764.4,506.5c1,2.58,1.76,4.79,2.58,7,12.35,33.33,22.62,67.17,24.89,102.94a79.34,79.34,0,0,1-2.51,26.94l-38.43-4.43c0,12.34.34,23.59-.1,34.8s-1.64,22.48-2.51,33.8c86.17-97.39,113.62-264.14,20.09-400.19-95.57-139-281.72-183-429.74-101.27-73.35,40.49-124,100.89-152.16,179.8-18.66,52.37-22.95,106.2-14.45,160.63L225,535c-14.55-13.29-34.08-11.83-52.42-16.27,9.7-4.16,18.84-8.1,28-12,14.13-6,29-8.39,44.22-8.18a178.39,178.39,0,0,1,42.88,6.23c27.2,7.1,52.89,17.92,77.53,31.32,1.47.79,3,1.52,4.46,2.28l.5-.58-12.09-24.64c28.1,5,55.54,8.61,83.07,1.26a6.76,6.76,0,0,0-2.95-.25,190.07,190.07,0,0,1-46.34-1.28c-13.67-2.14-26.18-8-38.57-14a8.8,8.8,0,0,0-6.28-.53,164.62,164.62,0,0,0-16.31,7.39c-3.83,2-7.39,4.45-11.18,6.77L277.3,455.43c8.48.4,15.95.54,23.38,1.2,3,.27,3.87-.62,4.39-3.38,1.24-6.68,2.84-13.29,4.52-21l15,15.67,11.94-11.2c2.83,5,5.43,9.49,8,14.05,6.81,12,6.81,12.07,20.68,11.25,13.19-.79,26.11-2.69,37.63-9.82,7.49-4.63,12.57-11.05,14.59-20.11-1.59-.25-2.79-.51-4-.61-14.81-1.22-29.61-2.67-44.45-3.54-13.33-.78-26.81-2.23-40-1-20.22,1.82-40.31,5.35-60.36,8.73-19.37,3.26-38.67,6.69-58.42,4.78-7.59-.73-15.17-1.73-21.93-5.69-5.1-3-7.21-7.55-6-12.5,1.35-5.41,5.16-8.79,11.17-8.52a78.89,78.89,0,0,1,17.31,2.59c10,2.76,19.8,6.2,30.42,5,17-1.9,34-3.59,51-5.74,34.57-4.38,69-3.34,103.49,1.37,7.38,1,14.79,1.81,22.17,2.71,1.83-10.95-4.72-25.33-15.13-32.63-18.14-12.71-38.51-13.84-59.56-10.82a4.1,4.1,0,0,0-2.53,1.41c-3.29,4.51-6.81,8.92-9.53,13.76-2.59,4.6-4.29,9.69-6.67,15.22l-8.74-15.44-12.83,14.65c-.41-1.14-.71-1.81-.89-2.51-1.93-7.49-3.78-15-5.84-22.45a5.38,5.38,0,0,0-2.44-3.27,8.92,8.92,0,0,1-5.73-8.14c-.26-7.23.07-14.47.13-21.71,0-1.58-.07-3.17-.09-4.76-.1-8.33-.52-16.67-.17-25,.21-4.94,3.49-8.21,8.46-9.2a30.34,30.34,0,0,1,7.81-.73c18.31,1.21,36.61,2.61,54.92,3.83a7.27,7.27,0,0,0,4.44-1.13,153,153,0,0,1,72.3-28.58c10.14-1.28,19.68-3.32,29.23-7.71C503.36,256.81,544,254,585.53,258.69c16.88,1.89,32.82,7.38,48.62,13.22,24.78,9.16,47.89,21.31,67.47,39.4,15.49,14.32,27.52,30.91,33.51,51.46a6.27,6.27,0,0,0,3.15,3.19c22.71,11.13,39.9,28,52.17,50,10.72,19.23,16.68,40,19.63,61.68a187.15,187.15,0,0,1,.56,46.48C795.22,518.41,781.61,508.27,764.4,506.5Z" transform="translate(-46.37 -46.3)"/><path class="cls-1" d="M176.37,715.63l21.57-9.46,12.75,17.21-14.82,17.94.38.71,21.38-9.43,17.26,23L183.79,775l-17.68-23.45,13.27-17.66-.42-.61-20.52,7.92L140.79,717.8l33-43.64,17.24,23-15.15,17.9Z" transform="translate(-46.37 -46.3)"/><path class="cls-1" d="M876,322.83c6,17.2,12.06,33.8,17.44,50.63,2.39,7.45.06,11.69-6,14.6s-10,1.82-15.12-4.46a13.41,13.41,0,0,0-1.26-1.1c0,1.59,0,2.76,0,3.92a10.15,10.15,0,0,1-5.75,9.39,42.8,42.8,0,0,1-7.28,2.81c-4.54,1.38-8.23-.36-10.79-4a39.09,39.09,0,0,1-4.67-8.89c-5.25-14.14-10.3-28.35-15.41-42.53a21.52,21.52,0,0,1-.53-2.27Zm-29.51,41.43c2.06,2.43,3.26,5.15,5,5.53a7.16,7.16,0,0,0,6.14-2.31c1-1.41-.09-4.25-.29-7Zm20-7.3c2,2.29,3.18,4.28,4.93,5.49.69.47,3.56-.55,3.74-1.3.52-2.17.18-4.55.18-7.51Z" transform="translate(-46.37 -46.3)"/><path class="cls-1" d="M446.89,82c1.6-.17,2.93-.39,4.26-.45C464.74,81,478.33,80.4,491.93,80a64.08,64.08,0,0,1,10.81.59c5.79.81,9.12,4.19,9.71,9.28.79,6.83-1.06,10.25-7,12.88-1,.44-2,.85-3.23,1.35,9.76,3.89,12.54,8.32,11.22,17.59-.8,5.58-3.75,8.74-9.71,9.77a99.08,99.08,0,0,1-12.27,1.27c-13.47.57-26.94,1-40.41,1.46a15.22,15.22,0,0,1-2-.22C448.32,116.64,447.61,99.49,446.89,82Zm30.32,39.9c2.72-1,5.73-1.21,6.7-2.72s.8-5-.32-6.5c-1-1.37-4-1.31-6.38-2Zm-.71-21.12c2.56-.92,5-1.25,6.54-2.57.75-.63.53-4.06-.29-4.59C481,92.54,478.61,92.52,476,92,476.15,95.24,476.3,97.51,476.5,100.79Z" transform="translate(-46.37 -46.3)"/><path class="cls-1" d="M317.63,814.33l22.53,13L313.6,872.63c-7.42-4.33-14.64-8.46-21.72-12.81-.83-.51-1.3-2.27-1.26-3.44.25-7.1.7-14.21,1.06-21.31a4.28,4.28,0,0,0-.64-2.7c-3.88,6.58-7.75,13.16-11.88,20.18l-22.4-13,26.57-45.32c7.77,4.5,15.26,8.72,22.58,13.21,1,.62,1.64,2.62,1.61,4-.18,6.73-.64,13.44-.28,20.52C310.61,826.25,314,820.53,317.63,814.33Z" transform="translate(-46.37 -46.3)"/><path class="cls-1" d="M143.4,401.63l-49.14-18c4.26-11.67,8.3-23,12.59-34.31,2.34-6.15,4.57-12.45,7.8-18.14A11.09,11.09,0,0,1,133,329.93c2.13,2.78,2.44,7,3.6,10.57-.73.2-.42.21-.32.07,5.34-7.42,11-8.39,21-2.72a9.13,9.13,0,0,1,4.6,9.9,60.65,60.65,0,0,1-2.71,10.85c-4.67,13.29-9.52,26.51-14.31,39.76C144.48,399.38,144,400.35,143.4,401.63Zm-.3-30.47c0-2.93.79-5.72-.24-7.36-.91-1.43-4.23-2.6-5.81-2-1.83.66-2.93,3.35-4.7,5.61Zm-19.91-7.25c0-3.05.38-5.34-.18-7.38-.23-.82-3.08-1.92-3.69-1.47-1.78,1.31-3,3.34-4.88,5.54Z" transform="translate(-46.37 -46.3)"/><path class="cls-1" d="M832.29,704.74,850.52,716l-14.89,24.41-44.89-27.38c7.62-12.56,15.06-25,22.65-37.26a69.9,69.9,0,0,1,7.23-10c4.29-4.77,8.64-5.27,14.09-2.24,5.3,2.95,6.88,6.62,5.54,12.83-.18.83-.31,1.66-.56,3,1.2-.92,2.06-1.54,2.88-2.2,3.67-2.93,7.73-3.64,11.89-1.48,5.07,2.64,9.95,5.63,15.12,8.59l-15,25.23c-4.51-2.74-8.83-5.37-13.16-8C836.15,698.34,835.12,698.66,832.29,704.74Zm-9.1-5.42c.59-3,1.47-5.23,1.23-7.32-.11-1-2.92-2.62-3.67-2.25-1.91.93-3.34,2.83-5.4,4.75Z" transform="translate(-46.37 -46.3)"/><path class="cls-1" d="M513.94,914.23c-2.13-17.52-4.2-34.66-6.33-52.16,8.37-1,16.39-2,24.4-3,7.68-.93,15.36-1.87,23-2.69a35.71,35.71,0,0,1,7.45-.15c7,.71,10.07,3.57,11.28,9.91,1.11,5.84-1,9.58-7.25,12.75l-1.3.66c.16.33.23.7.36.72,7.85,1.3,11,6.44,11.59,13.86.33,4.07,1,8.11,1.49,12.48l-28.6,3.26c-.7-5.34-1.38-10.48-2.06-15.63-.75-5.74-1.82-6.42-8-4.65.76,6.8,1.53,13.69,2.36,21.21Zm24.65-35.47c2.75-1.38,5-2,6.53-3.49.66-.63.18-3.89-.58-4.25-2-.91-4.37-.88-7-1.29C537.93,873,538.18,875.17,538.59,878.76Z" transform="translate(-46.37 -46.3)"/><path class="cls-1" d="M690.3,866.83l-27.9-44.57L686.51,807c3.14,5,6.19,9.76,9.49,15l6.49-3.8L693,802.93l24.16-15,27.91,44.4L721,847.48l-12.21-19.15-6.44,3.77,12.14,19.49Z" transform="translate(-46.37 -46.3)"/><path class="cls-1" d="M754.6,754.85l22.23,23.43c.69.72,1.44,1.39,2.14,2.1,1.84,1.87,3.82,3,6.11.75s1-4.19-.85-6q-11.9-11.7-23.72-23.48c-.62-.61-1.19-1.26-1.68-1.77l20.89-20.21c9.21,9.33,19.21,19.29,29,29.47,3.58,3.74,3.62,7.5,1.07,12a8.2,8.2,0,0,1-1.2,1.89c-10.6,10.76-21,21.71-32,32.11-4.47,4.26-9.34,3.92-13.77-.52-9.79-9.81-19.17-20-28.89-30.26Z" transform="translate(-46.37 -46.3)"/><path class="cls-1" d="M866.67,304.52l-22.43,14c-4,2.5-8,5-12.09,7.48-6.12,3.68-11.23,3-15.42-2.72-4.41-6-8.31-12.44-12.32-18.75-3.28-5.16-6.55-10.33-9.55-15.65-5.15-9.12-3.89-13.82,4.9-19.3,10.79-6.73,21.6-13.42,32.63-20.27l15,24.26c-2.2,1.41-4.15,2.69-6.13,3.93q-12.22,7.6-24.48,15.19c-2.39,1.48-4,3.25-2.14,6.08,1.76,2.68,4,1.87,6.2.5C831,292.89,841.07,286.54,851.5,280,856.58,288.23,861.55,296.24,866.67,304.52Z" transform="translate(-46.37 -46.3)"/><path class="cls-1" d="M231.56,173.57l22.94-16.16,11.42,16.21.65-.3c-1.25-6.29-2.55-12.57-3.69-18.88-.18-1,0-2.7.67-3.19,7.32-5.36,14.76-10.55,22.6-16.09,1.51,7.88,3.05,15.18,4.26,22.54a7.63,7.63,0,0,0,4,5.82c7.44,4.56,14.74,9.35,22.53,14.32l-23.58,16.52-20.85-13L272,182l12.75,18.3-22.93,16.15Z" transform="translate(-46.37 -46.3)"/><path class="cls-1" d="M183.86,309.89l-15.37,25c-1-.84-1.81-1.48-2.54-2.23-11.09-11.33-22.14-22.71-33.29-34-1.68-1.7-2-2.93-.64-5.06,6.95-10.94,13.74-22,20.57-33,.88-1.41,1.49-2.66,3.74-1.91,16.06,5.37,32.18,10.59,48.28,15.87.22.07.39.3.84.66-4.76,7.67-9.49,15.39-14.38,23-.4.62-1.77.81-2.7.84-.67,0-1.36-.56-2-.86-7.12-3.14-7.12-3.14-11,4.3,1.3,1.15,2.67,2.36,4.06,3.56S182.21,308.48,183.86,309.89Zm-30.11-25.95-.42.66,12.43,10.93,3.35-5.27Z" transform="translate(-46.37 -46.3)"/><path class="cls-1" d="M520.09,131.82c4.89-11.42,9.55-22.28,14.19-33.15,2.06-4.82,4-9.7,6.25-14.42a4,4,0,0,1,3.24-1.81q19.8,3,39.52,6.51c1,.17,2.49,1.42,2.56,2.28,1.43,16.54,2.69,33.1,4,49.66a17.05,17.05,0,0,1-.17,2.06c-4.38-.65-8.62-1.25-12.86-1.92s-8.35-1.54-12.55-2.05c-2.55-.31-3.57-1.42-3.2-3.9a6.23,6.23,0,0,0,0-.75c.1-7.87.1-7.87-8.25-8.66-1.12,3.39-2.27,6.89-3.52,10.72ZM561.73,99l-.8-.2c-1.74,5-3.47,10.09-5.35,15.53l6.15.88Z" transform="translate(-46.37 -46.3)"/><path class="cls-1" d="M195.78,257.53l20.05-21.27c.9.78,1.57,1.33,2.21,1.91,1.58,1.44,3.47,2.68,5.19.78a5.28,5.28,0,0,0,1.1-4.46c-.87-2.24-2.73-4-5.63-3a18.37,18.37,0,0,0-3,1.52c-6.37,3.68-12.73,7.4-19.11,11.08-9.92,5.72-13.35,2.87-19.91-5.68-1.09-1.42-1-4.53-.3-6.36a31.51,31.51,0,0,1,5.55-9.19c7.45-8.25,15.2-16.23,22.92-24.24a36.48,36.48,0,0,1,5.72-4.8c6.63-4.49,9.41-4.17,15.06,1.38a23.88,23.88,0,0,0,2.45,1.83c-6.66,7-12.9,13.57-19.24,20.07a3,3,0,0,1-2.52.16c-2.72-1-4,.62-5,2.65a3.07,3.07,0,0,0,.29,2.73,3.18,3.18,0,0,0,2.64.52,13,13,0,0,0,3.35-1.59c7.07-4,14.08-8.08,21.18-12,5.7-3.15,8.74-2.74,13.57,1.52,1,.91,2,1.88,3,2.85,6,5.89,7,10.59,1.36,17-9.38,10.68-19.55,20.68-29.48,30.87a20.39,20.39,0,0,1-4.7,3c-3.41,1.92-6.7,1.71-9.7-.87C200.59,262,198.42,259.94,195.78,257.53Z" transform="translate(-46.37 -46.3)"/><path class="cls-1" d="M758.83,213.17c-2.62,3.25-4.83,6.27-7.33,9-3.36,3.7-6.84,4.48-11.47,2.33a47.14,47.14,0,0,1-8.58-5.24C723.2,213,715.09,206.57,707,200.15a42.49,42.49,0,0,1-4.71-4.28c-5.33-5.72-5.54-10.07-.77-16.26q8.22-10.68,16.57-21.26c5.5-6.95,10.18-8.13,17.35-3,11.12,8,22,16.42,32.46,25.29,7.75,6.57,7.61,11.2,1.16,19.24-.84,1.05-1.74,2.07-2.82,3.36L743.57,185.7c.89-1.33,2.15-2.39,2.27-3.58.17-1.57-.08-3.73-1.07-4.7-.73-.71-3.65-.51-4.36.32-5,5.9-9.79,12-14.3,18.26-.69.95-.1,3.89.89,4.66s3.53.56,4.79-.21c1.61-1,2.6-2.95,4.23-4.94Z" transform="translate(-46.37 -46.3)"/><path class="cls-1" d="M357.75,121.82c1.6,3.6,3.1,7,4.76,10.73l-23.36,10.58,4.51,10.08,25.86-11.34,4.8,10.59L322.25,175.6c-7.12-16.07-14.13-31.89-21.31-48.11l52.05-23c1.6,3.55,3.11,6.89,4.77,10.59l-25.71,11.65,2.24,5.44Z" transform="translate(-46.37 -46.3)"/><path class="cls-1" d="M482.09,913.89l-56.61-5.57c1.75-17.44,3.48-34.62,5.24-52.16,5.86.53,11.41,1,16.95,1.55,12.05,1.18,24.09,2.46,36.15,3.54,2.5.22,3.67.89,3.24,3.58s-.58,5.21-.93,8.48l-27.66-2.57c-1.59,5.69-1.46,5.85,3.63,6.37,6.82.7,13.63,1.47,20.87,2.26-.39,3.82-.76,7.45-1.16,11.42l-25.46-2.5c-.38,3.58-.76,7.09-1.19,11l28.1,3.12C482.87,906.28,482.51,909.81,482.09,913.89Z" transform="translate(-46.37 -46.3)"/><path class="cls-1" d="M382.79,898.13l-27.08-8.72L368,850.52l-14-4.67c1.17-3.68,2.27-7.17,3.52-11.1l55.27,17.52c-1.18,3.77-2.27,7.28-3.51,11.25l-14.13-4.22Z" transform="translate(-46.37 -46.3)"/><path class="cls-1" d="M649.16,841.19l-13.89,5.17,13.6,38.35-26.79,9.5-13.75-38.56-13.9,4.94c-1.36-3.77-2.62-7.25-4-11.12l54.72-19.4C646.5,833.84,647.76,837.3,649.16,841.19Z" transform="translate(-46.37 -46.3)"/><path class="cls-1" d="M425.67,139.11l-27.73,6.69c-3.13-13.2-6.23-26.25-9.4-39.6l-14.31,3.11c-.91-3.78-1.76-7.26-2.72-11.23L428,84.66c1,4.07,1.78,7.56,2.65,11.27L416.4,99.62C419.48,112.73,422.51,125.65,425.67,139.11Z" transform="translate(-46.37 -46.3)"/><path class="cls-1" d="M613.37,96.27l27,9.47-13.44,38.37,16.66,6.09c-1.28,3.66-2.49,7.14-3.88,11.15l-43.82-15.46C601.71,129.25,607.47,113,613.37,96.27Z" transform="translate(-46.37 -46.3)"/><path class="cls-1" d="M671.08,118,696.3,131.4l-19,36.14,15.63,8.32c-1.82,3.38-3.56,6.59-5.53,10.23l-41-21.62C654.71,148.84,662.81,133.57,671.08,118Z" transform="translate(-46.37 -46.3)"/><path class="cls-1" d="M751.69,236.91l39.11-35.07L809.88,223l-30.29,27.2,11.8,13.26-8.64,8Z" transform="translate(-46.37 -46.3)"/><path class="cls-1" d="M248.89,764.51l21.73,18.54c-11.36,13.35-22.58,26.51-34.09,40l-21.77-18.51Z" transform="translate(-46.37 -46.3)"/><path class="cls-2" d="M175.91,566c28.78-9.88,58.47-13.47,89.33-14.33-9.55-12.45-18.16-24.53-31.53-33.71,7.79,0,14.47-.5,21,.1,21,1.91,41.13,7.77,60.72,15.46,22.72,8.92,44.77,19.35,64.6,33.62,13.54,9.75,25.87,21.21,38.73,31.9a9,9,0,0,0,3.43,2c-10.45-21.22-20.9-42.44-31.45-63.88,3.76,0,7.06-.08,10.36,0,20.53.59,40.7-1,59.67-9.83,26.88-12.5,49.93-29.72,66.73-54.53,6.2-9.13,10.35-20.77,10.39-28.58-5.51-.95-11.11-2-16.74-2.78-.68-.09-1.74,1.39-2.37,2.31-5.69,8.34-10.68,17.26-17.12,25-10.38,12.41-24.7,18.75-40.09,22.67-22,5.6-44.21,5.85-66.57,3.09-7.78-1-27.62-8.7-33.95-13.17,7.64-.9,15.28-1.53,22.83-2.74,11.45-1.85,22.26-5.65,31.8-12.42,13.92-9.88,20.59-23.72,21.43-40.53,1-20.3-4.63-38-20.61-51.52-10.26-8.66-22.37-13.38-35.4-16.1-13.25-2.76-26.57-2-39.92-1.2-11.45.7-22.92,1.17-34.59,1.75-.57-2.91-.78-5.23,1.48-7.64,6.2-6.6,5.55-12.21-1.26-18.19-1.18-1-1.21-3.36-1.86-5.39,4.86,0,8.95-.26,13,0,15.68,1.19,31.35,2.59,47,3.79a6.25,6.25,0,0,0,4-1.25A134.4,134.4,0,0,1,446,299.82c22.38-1.48,44.9-1.64,66.67,6.1,18.87,6.71,35.51,17,50.75,29.73a169,169,0,0,1,36,41.91,16.46,16.46,0,0,1-2.78-.43c-13.66-4.75-27.35-9.4-40.93-14.35-7.4-2.7-12.71-1.53-15,4s.4,10.44,7.71,13.36c23.09,9.21,46.49,17.53,71.12,21.56,11.44,1.88,23,2.87,34.56,4.25.56.07,1.13,0,2.59,0-6.78-5.88-12.85-11.2-19-16.44a176.66,176.66,0,0,1-31.6-35.35c-9.92-14.58-22.65-26.61-36.44-37.49-18.52-14.6-38.83-25.8-61.84-31.66-2.78-.7-5.6-1.29-8.39-1.94a16.14,16.14,0,0,1-1.66-.88c5.77-1.22,10.67-2.4,15.62-3.28,27.08-4.81,54.36-5.56,81.16.48,31.89,7.18,62,19.28,87.83,40,14.23,11.41,25.93,24.93,32.51,42.24a46.12,46.12,0,0,1,3,12.3c.27,3.18,1.47,4.43,4.23,5.49a97.71,97.71,0,0,1,48.13,38.86c9.71,15,15.69,31.46,19,48.87,1.77,9.13,2.75,18.42,4.21,28.41C774.75,487,756,485.91,736.28,487c18,43.57,34.67,87.24,37.24,135.24-14.54-1.12-28.34-3.24-42.69.23.36,6,.83,12.11,1.08,18.28,1,25,.75,49.92-4.68,74.54-3.18,14.4-10.65,25.88-22.07,35-46.3,37.16-98.57,61.21-157.36,69.64C446.36,834.57,356.3,808.28,279,741c-53-46.17-86.72-104.48-102.74-173C176.15,567.45,176.07,566.85,175.91,566Zm268.62-236.3c-5.73-5.33-11-9.72-18.6-9.09a45.47,45.47,0,0,0-9.81,2.13C405,326.28,395.19,333.43,383,333.29c1.3,10.91,9.41,20.24,18.72,22,14.34,2.8,26-5.14,28.21-19.42.56-3.66,2.3-5.25,5.77-5.48C438.39,330.26,441.08,330,444.53,329.71Z" transform="translate(-46.37 -46.3)"/><path class="cls-2" d="M764.4,506.5c17.21,1.77,30.82,11.91,46.24,17.63a187.15,187.15,0,0,0-.56-46.48c-3-21.69-8.91-42.45-19.63-61.68-12.27-22-29.46-38.88-52.17-50a6.27,6.27,0,0,1-3.15-3.19c-6-20.55-18-37.14-33.51-51.46-19.58-18.09-42.69-30.24-67.47-39.4-15.8-5.84-31.74-11.33-48.62-13.22C544,254,503.36,256.81,464.94,274.48c-9.55,4.39-19.09,6.43-29.23,7.71a153,153,0,0,0-72.3,28.58A7.27,7.27,0,0,1,359,311.9c-18.31-1.22-36.61-2.62-54.92-3.83a30.34,30.34,0,0,0-7.81.73c-5,1-8.25,4.26-8.46,9.2-.35,8.31.07,16.65.17,25,0,1.59.1,3.18.09,4.76-.06,7.24-.39,14.48-.13,21.71a8.92,8.92,0,0,0,5.73,8.14,5.38,5.38,0,0,1,2.44,3.27c2.06,7.45,3.91,15,5.84,22.45.18.7.48,1.37.89,2.51l12.83-14.65,8.74,15.44c2.38-5.53,4.08-10.62,6.67-15.22,2.72-4.84,6.24-9.25,9.53-13.76a4.1,4.1,0,0,1,2.53-1.41c21.05-3,41.42-1.89,59.56,10.82,10.41,7.3,17,21.68,15.13,32.63-7.38-.9-14.79-1.7-22.17-2.71-34.45-4.71-68.92-5.75-103.49-1.37-17,2.15-34,3.84-51,5.74-10.62,1.18-20.42-2.26-30.42-5a78.89,78.89,0,0,0-17.31-2.59c-6-.27-9.82,3.11-11.17,8.52-1.25,4.95.86,9.52,6,12.5,6.76,4,14.34,5,21.93,5.69,19.75,1.91,39-1.52,58.42-4.78,20.05-3.38,40.14-6.91,60.36-8.73,13.21-1.19,26.69.26,40,1,14.84.87,29.64,2.32,44.45,3.54,1.22.1,2.42.36,4,.61-2,9.06-7.1,15.48-14.59,20.11-11.52,7.13-24.44,9-37.63,9.82-13.87.82-13.87.79-20.68-11.25-2.57-4.56-5.17-9.09-8-14.05l-11.94,11.2-15-15.67c-1.68,7.69-3.28,14.3-4.52,21-.52,2.76-1.39,3.65-4.39,3.38-7.43-.66-14.9-.8-23.38-1.2l42.21,57.13c3.79-2.32,7.35-4.81,11.18-6.77A164.62,164.62,0,0,1,347,498.4a8.8,8.8,0,0,1,6.28.53c12.39,6,24.9,11.83,38.57,14a190.07,190.07,0,0,0,46.34,1.28,6.76,6.76,0,0,1,2.95.25c-27.53,7.35-55,3.76-83.07-1.26l12.09,24.64-.5.58c-1.49-.76-3-1.49-4.46-2.28-24.64-13.4-50.33-24.22-77.53-31.32a178.39,178.39,0,0,0-42.88-6.23c-15.23-.21-30.09,2.16-44.22,8.18-9.15,3.9-18.29,7.84-28,12,18.34,4.44,37.87,3,52.42,16.27l-52.94,11.5c-8.5-54.43-4.21-108.26,14.45-160.63,28.13-78.91,78.81-139.31,152.16-179.8,148-81.72,334.17-37.75,429.74,101.27,93.53,136,66.08,302.8-20.09,400.19.87-11.32,2.08-22.54,2.51-33.8s.1-22.46.1-34.8l38.43,4.43a79.34,79.34,0,0,0,2.51-26.94c-2.27-35.77-12.54-69.61-24.89-102.94C766.16,511.29,765.35,509.08,764.4,506.5Z" transform="translate(-46.37 -46.3)"/><path class="cls-2" d="M846.47,364.26l10.83-3.76c.2,2.73,1.27,5.57.29,7a7.16,7.16,0,0,1-6.14,2.31C849.73,369.41,848.53,366.69,846.47,364.26Z" transform="translate(-46.37 -46.3)"/><path class="cls-2" d="M866.43,357l8.85-3.32c0,3,.34,5.34-.18,7.51-.18.75-3.05,1.77-3.74,1.3C869.61,361.24,868.39,359.25,866.43,357Z" transform="translate(-46.37 -46.3)"/><path class="cls-2" d="M477.21,121.91V110.73c2.41.65,5.38.59,6.38,2,1.12,1.54,1.32,4.94.32,6.5S479.93,120.91,477.21,121.91Z" transform="translate(-46.37 -46.3)"/><path class="cls-2" d="M476.5,100.79c-.2-3.28-.35-5.55-.55-8.84,2.66.57,5.08.59,6.8,1.68.82.53,1,4,.29,4.59C481.46,99.54,479.06,99.87,476.5,100.79Z" transform="translate(-46.37 -46.3)"/><path class="cls-2" d="M143.1,371.16l-10.75-3.78c1.77-2.26,2.87-4.95,4.7-5.61,1.58-.57,4.9.6,5.81,2C143.89,365.44,143.1,368.23,143.1,371.16Z" transform="translate(-46.37 -46.3)"/><path class="cls-2" d="M123.19,363.91l-8.75-3.31c1.84-2.2,3.1-4.23,4.88-5.54.61-.45,3.46.65,3.69,1.47C123.57,358.57,123.19,360.86,123.19,363.91Z" transform="translate(-46.37 -46.3)"/><path class="cls-2" d="M823.19,699.32l-7.84-4.82c2.06-1.92,3.49-3.82,5.4-4.75.75-.37,3.56,1.3,3.67,2.25C824.66,694.09,823.78,696.31,823.19,699.32Z" transform="translate(-46.37 -46.3)"/><path class="cls-2" d="M538.59,878.76c-.41-3.59-.66-5.78-1-9,2.6.41,5,.38,7,1.29.76.36,1.24,3.62.58,4.25C543.62,876.73,541.34,877.38,538.59,878.76Z" transform="translate(-46.37 -46.3)"/><path class="cls-2" d="M153.75,283.94l15.36,6.32-3.35,5.27L153.33,284.6Z" transform="translate(-46.37 -46.3)"/><path class="cls-2" d="M561.73,99v16.21l-6.15-.88c1.88-5.44,3.61-10.49,5.35-15.53Z" transform="translate(-46.37 -46.3)"/><path class="cls-1" d="M444.53,329.71c-3.45.29-6.14.55-8.83.73-3.47.23-5.21,1.82-5.77,5.48-2.17,14.28-13.87,22.22-28.21,19.42-9.31-1.81-17.42-11.14-18.72-22,12.19.14,22-7,33.12-10.54a45.47,45.47,0,0,1,9.81-2.13C433.5,320,438.8,324.38,444.53,329.71Z" transform="translate(-46.37 -46.3)"/></svg>